<?xml version="1.0" encoding="UTF-8" standalone="no"?>
<svg width="78px" height="87px" viewBox="0 0 78 87" version="1.1" xmlns="http://www.w3.org/2000/svg" xmlns:xlink="http://www.w3.org/1999/xlink">
    <!-- Generator: Sketch 3.8.3 (29802) - http://www.bohemiancoding.com/sketch -->
    <title>Slice 1</title>
    <desc>Created with Sketch.</desc>
    <defs></defs>
    <g id="Page-1" stroke="none" stroke-width="1" fill="none" fill-rule="evenodd">
        <g id="snipcart-logo">
            <g id="Layer_1">
                <path d="M61.626,50.107 L61.626,55.232 C61.626,59.154 58.612,60.361 52.782,60.361 L52.413,60.361 C38.445,60.361 39.786,65.585 39.384,67.496 L39.182,67.496 C38.78,65.585 40.02,60.361 26.049,60.361 L25.783,60.361 C19.954,60.361 16.938,59.157 16.938,55.232 L16.938,50.107 L13.924,50.107 L13.924,55.035 C13.924,60.662 16.637,63.777 25.783,63.777 L26.25,63.777 C33.387,63.777 37.774,65.285 37.774,70.912 L40.789,70.912 C40.789,65.285 45.179,63.777 52.313,63.777 L52.781,63.777 C61.926,63.777 64.64,60.662 64.64,55.035 L64.64,50.107 L61.626,50.107 L61.626,50.107 Z" id="Shape" fill="#FFFFFF"></path>
                <path d="M72.489,18.627 L43.392,1.827 C40.853,0.36 36.695,0.36 34.154,1.827 L5.061,18.627 C2.519,20.094 0.441,23.695 0.441,26.629 L0.441,60.221 C0.441,63.155 2.521,66.756 5.061,68.225 L34.154,85.016 C36.695,86.481 40.853,86.481 43.392,85.016 L72.489,68.225 C75.031,66.756 77.109,63.155 77.109,60.221 L77.109,26.629 C77.109,23.695 75.031,20.094 72.489,18.627 L72.489,18.627 Z M64.642,36.716 L61.627,36.716 L61.627,31.591 C61.627,27.672 58.613,26.466 52.783,26.466 L52.517,26.466 C38.549,26.466 39.788,21.24 39.385,19.331 L39.183,19.331 C38.781,21.24 40.122,26.466 26.151,26.466 L25.784,26.466 C19.955,26.466 16.939,27.673 16.939,31.591 L16.939,35.545 L64.629,49.335 L64.629,50.107 L64.642,50.107 L64.642,55.035 C64.642,60.662 61.928,63.777 52.783,63.777 L52.315,63.777 C45.181,63.777 40.791,65.285 40.791,70.912 L37.776,70.912 C37.776,65.285 33.389,63.777 26.252,63.777 L25.785,63.777 C16.639,63.777 13.926,60.662 13.926,55.035 L13.926,50.107 L16.94,50.107 L16.94,55.232 C16.94,59.157 19.957,60.361 25.785,60.361 L26.051,60.361 C40.022,60.361 38.782,65.585 39.184,67.496 L39.386,67.496 C39.788,65.585 38.448,60.361 52.415,60.361 L52.784,60.361 C58.614,60.361 61.628,59.154 61.628,55.232 L61.628,52.286 L13.932,38.493 L13.932,36.716 L13.925,36.716 L13.925,31.793 C13.925,26.165 16.638,23.05 25.784,23.05 L26.251,23.05 C33.388,23.05 37.775,21.541 37.775,15.914 L40.79,15.914 C40.79,21.541 45.18,23.05 52.314,23.05 L52.782,23.05 C61.927,23.05 64.641,26.165 64.641,31.793 L64.642,36.716 L64.642,36.716 L64.642,36.716 Z" id="Shape" fill="#000000"></path>
            </g>
        </g>
    </g>
</svg>